<svg width="16" height="16" viewBox="0 0 16 16" fill="none" xmlns="http://www.w3.org/2000/svg">
<path d="M7.16536 11.6016L13.0404 5.72656L11.8737 4.5599L7.16536 9.26823L4.79036 6.89323L3.6237 8.0599L7.16536 11.6016ZM2.4987 15.6016C2.04036 15.6016 1.64786 15.4385 1.3212 15.1124C0.995087 14.7857 0.832031 14.3932 0.832031 13.9349V2.26823C0.832031 1.8099 0.995087 1.4174 1.3212 1.09073C1.64786 0.764618 2.04036 0.601562 2.4987 0.601562H14.1654C14.6237 0.601562 15.0162 0.764618 15.3429 1.09073C15.669 1.4174 15.832 1.8099 15.832 2.26823V13.9349C15.832 14.3932 15.669 14.7857 15.3429 15.1124C15.0162 15.4385 14.6237 15.6016 14.1654 15.6016H2.4987Z" fill="#0389FF"/>
</svg>
