<svg width="64" height="64" viewBox="0 0 64 64" fill="none" xmlns="http://www.w3.org/2000/svg">
<rect width="64" height="64" rx="8" fill="#0389FF" fill-opacity="0.1"/>
<path fill-rule="evenodd" clip-rule="evenodd" d="M31.9918 17.4922V19.1064L31.1233 19.1721C30.642 19.2104 29.9228 19.3034 29.53 19.38C29.1317 19.4621 28.4734 19.6372 28.064 19.7685C27.6546 19.8999 26.9908 20.168 26.598 20.354C26.1997 20.5456 25.6686 20.8301 25.4086 20.9888C25.1486 21.1475 24.7116 21.4484 24.4405 21.6509C24.1639 21.8588 23.6936 22.2528 23.3949 22.5374C23.0906 22.8164 22.6481 23.2816 22.4102 23.5661C22.1668 23.8506 21.7961 24.3431 21.5804 24.6605C21.3701 24.9779 21.0161 25.5907 20.7948 26.0285C20.5735 26.4663 20.2803 27.1667 20.142 27.588C19.9982 28.0094 19.8212 28.6605 19.7437 29.0381C19.6663 29.4157 19.5777 30.0066 19.5501 30.3514C19.5169 30.6961 19.4892 31.2159 19.4892 31.5005C19.4892 31.785 19.5169 32.3049 19.5501 32.6496C19.5777 32.9943 19.6663 33.5798 19.7437 33.9519C19.8156 34.3186 19.9927 34.9697 20.1365 35.402C20.2803 35.8288 20.5735 36.5347 20.7948 36.9725C21.0161 37.4102 21.3701 38.0231 21.5804 38.3405C21.7961 38.6579 22.1668 39.1503 22.4102 39.4349C22.6481 39.7194 23.0906 40.1845 23.3949 40.4636C23.6936 40.7427 24.1639 41.1421 24.4405 41.3501C24.7116 41.5525 25.1486 41.848 25.4086 42.0122C25.6686 42.1709 26.1997 42.4554 26.598 42.6469C26.9908 42.833 27.6546 43.1011 28.064 43.2324C28.4734 43.3638 29.1317 43.5389 29.53 43.6155C29.9228 43.6921 30.5203 43.7796 30.8577 43.8125C31.1897 43.8398 31.7042 43.8672 31.9918 43.8672C32.2795 43.8672 32.805 43.8398 33.1536 43.807C33.5021 43.7796 34.0996 43.6921 34.4813 43.6155C34.863 43.5389 35.5103 43.3692 35.9196 43.2324C36.329 43.1011 36.9873 42.833 37.3856 42.6469C37.7784 42.4554 38.315 42.1709 38.5751 42.0122C38.8351 41.8535 39.2666 41.5525 39.5432 41.3501C39.8143 41.1476 40.29 40.7482 40.5887 40.4691C40.8875 40.1845 41.3356 39.7194 41.5735 39.4349C41.8169 39.1503 42.1875 38.6579 42.4033 38.3405C42.6135 38.0231 42.9676 37.4102 43.1888 36.9725C43.4101 36.5347 43.7033 35.8343 43.8416 35.413C43.9799 34.9916 44.1625 34.3405 44.2344 33.9629C44.3119 33.5853 44.4059 32.956 44.4446 32.5675C44.4834 32.1407 44.4944 31.5224 44.4723 31.0354C44.4557 30.5867 44.3893 29.9191 44.334 29.5579C44.2731 29.1968 44.1625 28.666 44.0851 28.3815C44.0076 28.0969 43.8693 27.6373 43.7753 27.3691C43.6812 27.0955 43.4267 26.521 43.211 26.0832C43.0008 25.6455 42.6412 25.0162 42.4199 24.6879C42.1986 24.3541 41.8058 23.8397 41.5569 23.5387C41.1475 23.0627 41.0922 23.008 41.0756 23.1283C41.07 23.2049 41.0977 23.6482 41.1364 24.1133C41.1807 24.5784 41.2028 24.9724 41.1917 24.9888C41.1752 25.0052 40.81 25.0435 40.3841 25.0764C39.9526 25.1147 39.593 25.1366 39.5819 25.1311C39.5708 25.1311 39.4713 24.0969 39.3606 22.8438C39.25 21.5907 39.1781 20.5456 39.2002 20.5182C39.2278 20.4963 40.2789 20.3869 41.5347 20.2829C42.7961 20.1789 43.8361 20.1023 43.8472 20.1187C43.8638 20.1352 43.9025 20.5018 43.9357 20.9395C43.9744 21.3773 43.9965 21.7385 43.9855 21.7385C43.9744 21.7439 43.6093 21.7768 43.1667 21.8096C42.7241 21.8479 42.3535 21.8862 42.3369 21.8971C42.3203 21.9136 42.4199 22.0394 42.5582 22.1817C42.6965 22.3294 42.9731 22.6523 43.1778 22.9095C43.3769 23.1666 43.7089 23.6318 43.9191 23.9491C44.1238 24.2665 44.4612 24.8575 44.6659 25.2624C44.8706 25.6673 45.1251 26.2364 45.2302 26.521C45.3408 26.8055 45.5013 27.298 45.5953 27.6154C45.6838 27.9327 45.8111 28.4362 45.8719 28.7371C45.9328 29.0381 46.0102 29.4813 46.049 29.7221C46.0821 29.9629 46.1264 30.6414 46.1375 31.2269C46.1596 32.0258 46.143 32.4745 46.0766 33.0053C46.0268 33.3938 45.9217 34.0121 45.8498 34.3733C45.7779 34.7344 45.6119 35.3473 45.4847 35.7413C45.3574 36.1298 45.1306 36.7372 44.9813 37.0819C44.8319 37.4267 44.5719 37.9574 44.4004 38.2584C44.2289 38.5594 43.9523 39.0135 43.7753 39.2707C43.6038 39.5279 43.2829 39.9547 43.0616 40.2283C42.8459 40.4964 42.3867 40.9999 42.0437 41.3446C41.7062 41.6839 41.1752 42.1654 40.8709 42.4062C40.5666 42.6469 40.0411 43.0245 39.7091 43.2434C39.3717 43.4568 38.8406 43.7687 38.5197 43.9383C38.1989 44.1025 37.6401 44.3542 37.275 44.5019C36.9099 44.6442 36.3345 44.8412 36.0026 44.9342C35.6652 45.0327 35.1949 45.1531 34.9515 45.2024C34.7081 45.2516 34.1715 45.3392 33.7621 45.3993C33.22 45.4814 32.7331 45.5088 31.9918 45.5088C31.2395 45.5088 30.7637 45.4814 30.1939 45.3939C29.7679 45.3337 29.1815 45.2297 28.8938 45.1695C28.6062 45.1093 28.0585 44.9616 27.6768 44.8412C27.2951 44.7208 26.7086 44.5019 26.3767 44.3651C26.0393 44.2229 25.5082 43.9602 25.1873 43.7851C24.8665 43.61 24.3962 43.3309 24.1362 43.1558C23.8762 42.9862 23.4392 42.6688 23.1681 42.4499C22.8915 42.2365 22.3881 41.7824 22.0395 41.4431C21.6965 41.1093 21.2097 40.584 20.9663 40.283C20.7229 39.9821 20.3799 39.5279 20.2084 39.2707C20.0369 39.0135 19.7658 38.5812 19.6109 38.3131C19.456 38.0395 19.2126 37.5635 19.0743 37.2461C18.9305 36.9287 18.7092 36.3651 18.5764 35.9875C18.4492 35.61 18.2777 35.019 18.1947 34.6742C18.1173 34.3295 18.0011 33.6893 17.9402 33.2515C17.8628 32.7098 17.8296 32.1626 17.8296 31.5278C17.8296 30.9205 17.8628 30.324 17.9347 29.8042C17.9956 29.3664 18.1062 28.7152 18.1892 28.3541C18.2722 27.9929 18.4492 27.391 18.5764 27.0135C18.7092 26.6359 18.9305 26.0723 19.0743 25.7549C19.2126 25.4375 19.456 24.956 19.6109 24.6879C19.7658 24.4143 20.0369 23.9874 20.2084 23.7303C20.3799 23.4731 20.7229 23.0189 20.9663 22.7179C21.2097 22.417 21.6965 21.8917 22.0395 21.5579C22.3881 21.2186 22.8915 20.7644 23.1681 20.551C23.4392 20.3322 23.8762 20.0148 24.1362 19.8451C24.3962 19.67 24.8554 19.3964 25.1597 19.2268C25.4639 19.0572 26.0005 18.8 26.3491 18.6522C26.6976 18.5045 27.2951 18.2802 27.6768 18.1598C28.0585 18.0394 28.6283 17.8862 28.9492 17.815C29.27 17.7494 29.8177 17.6509 30.1662 17.6016C30.5148 17.5469 31.068 17.5031 31.9918 17.4922ZM31.162 22.8547V24.7699H32.8216V23.8123C32.8216 23.0846 32.8382 22.8547 32.8936 22.8547C32.9268 22.8547 33.1812 22.893 33.4578 22.9368C33.7289 22.9806 34.1715 23.0791 34.4426 23.1557C34.7081 23.2323 35.1562 23.391 35.4328 23.5114C35.7149 23.6318 36.1465 23.8452 36.3899 23.9874C36.6333 24.1242 37.0039 24.365 37.2197 24.5237C37.4299 24.6769 37.7784 24.9615 37.9887 25.1584C38.1989 25.35 38.5253 25.6947 38.7134 25.9191C38.9015 26.1434 39.2057 26.5483 39.3827 26.8219C39.5598 27.0901 39.8087 27.5333 39.936 27.8069C40.0687 28.075 40.2458 28.5183 40.3343 28.7919C40.4228 29.06 40.539 29.4813 40.5832 29.7221C40.633 29.9629 40.6883 30.2748 40.7326 30.6797H38.7963V32.3213H40.7326L40.7049 32.5785C40.6883 32.7262 40.633 33.0381 40.5832 33.2789C40.539 33.5197 40.4228 33.9355 40.3343 34.2091C40.2458 34.4773 40.0687 34.9205 39.936 35.1941C39.8087 35.4622 39.5598 35.9054 39.3827 36.179C39.2057 36.4472 38.9015 36.8576 38.7134 37.0819C38.5197 37.3063 38.2321 37.6182 38.0661 37.7714C37.9057 37.9246 37.6512 38.149 37.4963 38.2693C37.3469 38.3897 36.9929 38.636 36.7218 38.8111C36.4452 38.9862 35.9971 39.2324 35.726 39.3583C35.4494 39.4896 35.0013 39.6647 34.7302 39.7523C34.4536 39.8398 34.0332 39.9547 33.7898 39.9985C33.5464 40.0477 33.231 40.1025 32.8216 40.1462V38.231H31.162V40.1462L30.902 40.1189C30.7526 40.1025 30.4373 40.0477 30.1939 39.9985C29.9505 39.9547 29.5245 39.8398 29.2534 39.7523C28.9768 39.6647 28.5177 39.4841 28.23 39.3473C27.9423 39.2105 27.4665 38.9424 27.1789 38.7564C26.8912 38.5648 26.4542 38.242 26.2163 38.034C25.9729 37.8261 25.6022 37.4595 25.392 37.2187C25.1763 36.978 24.8499 36.5457 24.6562 36.2611C24.4681 35.9766 24.1971 35.506 24.0588 35.2214C23.9205 34.9369 23.7379 34.4773 23.6494 34.2091C23.5609 33.9355 23.4447 33.5197 23.4004 33.2789C23.3506 33.0381 23.2953 32.7262 23.2511 32.3213H25.1873V30.6797H23.2511L23.2787 30.417C23.2953 30.2748 23.3506 29.9629 23.4004 29.7221C23.4447 29.4813 23.5609 29.06 23.6494 28.7919C23.7379 28.5183 23.9205 28.0641 24.0588 27.7795C24.1971 27.495 24.4681 27.0244 24.6562 26.7399C24.8499 26.4553 25.1763 26.023 25.392 25.7823C25.6022 25.5415 25.9729 25.1749 26.2163 24.9669C26.4542 24.759 26.8746 24.4416 27.1512 24.261C27.4223 24.0859 27.8151 23.8561 28.0253 23.7521C28.23 23.6482 28.5785 23.495 28.7998 23.4074C29.0155 23.3199 29.3862 23.1995 29.613 23.1338C29.8398 23.0736 30.2271 22.9861 30.4705 22.9423C30.7139 22.8985 30.9684 22.8602 31.162 22.8547ZM31.1343 31.1393L28.6338 33.2242C29.1594 33.8534 29.3973 34.1325 29.5079 34.2584L29.7071 34.4827L32.794 31.9054L32.8216 26.521H31.162L31.1343 31.1393Z" fill="#016EE8"/>
</svg>
